<svg width="21" height="21" viewBox="0 0 21 21" fill="none" xmlns="http://www.w3.org/2000/svg">
<path id="Vector" d="M7.25003 10.3903L9.25676 12.3949C10.2219 10.7072 11.5576 9.26069 13.1632 8.16434L13.25 8.10505M19.5 10.25C19.5 8.95951 18.7059 7.84049 17.5237 7.23585C17.9388 5.98146 17.7041 4.61878 16.7927 3.70732C15.8812 2.79585 14.5185 2.56122 13.2641 2.97634C12.6685 1.79415 11.5405 1 10.25 1C8.95951 1 7.84049 1.79415 7.24488 2.97634C5.98146 2.56122 4.61878 2.79585 3.70732 3.70732C2.79585 4.61878 2.57024 5.98146 2.98537 7.23585C1.80317 7.84049 1 8.95951 1 10.25C1 11.5405 1.80317 12.6595 2.98537 13.2641C2.57024 14.5185 2.79585 15.8812 3.70732 16.7927C4.61878 17.7041 5.98146 17.9298 7.23585 17.5237C7.84049 18.7059 8.95951 19.5 10.25 19.5C11.5405 19.5 12.6685 18.7059 13.2641 17.5237C14.5185 17.9298 15.8812 17.7041 16.7927 16.7927C17.7041 15.8812 17.9388 14.5185 17.5237 13.2641C18.7059 12.6595 19.5 11.5405 19.5 10.25Z" stroke="white" stroke-width="2" stroke-linecap="round" stroke-linejoin="round"/>
</svg>
