<svg width="20" height="20" viewBox="0 0 20 20" fill="none" xmlns="http://www.w3.org/2000/svg">
<path d="M6.66667 1.66675V3.43989M6.66667 5.00008V3.43989M13.3333 1.66675V3.43989M13.3333 5.00008V3.43989M17.4664 8.33341C17.5 8.98992 17.5 9.79623 17.5 10.8334C17.5 13.1631 17.5 14.328 17.1194 15.2468C16.6119 16.472 15.6386 17.4453 14.4134 17.9528C13.4946 18.3334 12.3297 18.3334 10 18.3334C7.67029 18.3334 6.50544 18.3334 5.58658 17.9528C4.36144 17.4453 3.38807 16.472 2.8806 15.2468C2.5 14.328 2.5 13.1631 2.5 10.8334C2.5 9.79623 2.5 8.98992 2.53358 8.33341M17.4664 8.33341C17.4246 7.51528 17.3306 6.92978 17.1194 6.42C16.6119 5.19486 15.6386 4.22149 14.4134 3.71402C14.0955 3.58234 13.7482 3.49622 13.3333 3.43989M17.4664 8.33341L2.53358 8.33341M2.53358 8.33341C2.57544 7.51528 2.66944 6.92978 2.8806 6.42C3.38807 5.19486 4.36144 4.22149 5.58658 3.71402C5.90448 3.58234 6.25183 3.49622 6.66667 3.43989M6.66667 3.43989C7.45088 3.33341 8.47631 3.33341 10 3.33341C11.5237 3.33341 12.5491 3.33341 13.3333 3.43989" stroke="white" stroke-width="2" stroke-linecap="round" stroke-linejoin="round"/>
</svg>
