<svg width="19" height="19" viewBox="0 0 19 19" fill="none" xmlns="http://www.w3.org/2000/svg">
<g id="Logo">
<circle id="Ellipse 1" cx="9.5" cy="9.5" r="9.5" fill="#262626"/>
<path id="Vector" fill-rule="evenodd" clip-rule="evenodd" d="M4.75 13.7502C4.75 14.026 4.97362 14.25 5.24985 14.25H7.24996C7.52619 14.25 7.74981 14.026 7.74981 13.7502V12.7128C7.74981 12.437 7.97379 12.213 8.25002 12.213H8.53721C8.81308 12.213 9.03706 11.989 9.03706 11.7128V10.4632C9.03706 10.1869 8.81308 9.96294 8.53721 9.96294H7.28723C7.011 9.96294 6.78702 10.1869 6.78702 10.4628V10.75C6.78702 11.0262 6.56304 11.2502 6.28717 11.2502H5.24985C4.97398 11.2502 4.75 11.4738 4.75 11.75V13.7502ZM7.74981 6.53673C7.74981 6.81296 7.97379 7.03658 8.25002 7.03658H8.53721C8.81308 7.03658 9.03706 7.26056 9.03706 7.53679V8.53685C9.03706 8.81271 8.81308 9.03669 8.53721 9.03669H7.53715C7.47148 9.03674 7.40645 9.02385 7.34576 8.99875C7.28507 8.97365 7.22993 8.93684 7.18347 8.89042C7.13702 8.844 7.10017 8.78888 7.07503 8.72821C7.04988 8.66755 7.03694 8.60252 7.03694 8.53685V8.24965C7.03694 7.97342 6.81333 7.74981 6.5371 7.74981H5.24985C5.11728 7.74981 4.99014 7.69715 4.8964 7.60341C4.80266 7.50967 4.75 7.38253 4.75 7.24996V5.25058C4.75 4.97398 4.97362 4.75 5.24985 4.75H7.24996C7.52619 4.75 7.74981 4.97398 7.74981 5.25021V6.53673ZM11.9627 8.24965C11.9627 7.97342 12.1867 7.74981 12.4629 7.74981H13.7502C14.026 7.74981 14.25 7.52583 14.25 7.2496V5.25058C14.25 5.11794 14.1974 4.99073 14.1036 4.89687C14.0099 4.80302 13.8828 4.75019 13.7502 4.75H11.75C11.6174 4.7501 11.4902 4.80283 11.3964 4.89662C11.3027 4.9904 11.2499 5.11758 11.2498 5.25021V6.53673C11.2498 6.81296 11.0262 7.03658 10.75 7.03658H10.4628C10.1869 7.03658 9.96294 7.26056 9.96294 7.53679V8.53685C9.96294 8.81271 10.1869 9.03669 10.4628 9.03669H11.4628C11.7391 9.03669 11.9631 8.81271 11.9631 8.53685L11.9627 8.24965ZM14.25 13.7498C14.25 14.0257 14.026 14.2496 13.7498 14.2496H11.75C11.6844 14.2497 11.6193 14.2368 11.5586 14.2117C11.498 14.1866 11.4428 14.1498 11.3964 14.1034C11.3499 14.0569 11.3131 14.0018 11.2879 13.9412C11.2628 13.8805 11.2498 13.8155 11.2498 13.7498V12.4625C11.2498 12.1867 11.0258 11.9627 10.75 11.9627H10.4628C10.3971 11.9627 10.3321 11.9498 10.2714 11.9246C10.2108 11.8995 10.1556 11.8626 10.1092 11.8162C10.0628 11.7697 10.026 11.7146 10.0009 11.6539C9.97579 11.5932 9.96289 11.5282 9.96294 11.4625V10.4628C9.96294 10.1866 10.1869 9.96258 10.4628 9.96258H11.4628C11.5955 9.96267 11.7227 10.0154 11.8164 10.1092C11.9102 10.203 11.963 10.3302 11.9631 10.4628V10.7496C11.9631 11.0258 12.1867 11.2498 12.4629 11.2498H13.7498C14.026 11.2498 14.25 11.4734 14.25 11.7497V13.7498Z" fill="white"/>
</g>
</svg>
