<svg width="37" height="22" viewBox="0 0 37 22" fill="none" xmlns="http://www.w3.org/2000/svg">
<g clip-path="url(#clip0_181_873)">
<g clip-path="url(#clip1_181_873)">
<path d="M16 5.92763L16 9.52747C16 9.91411 15.6866 10.2275 15.2999 10.2275L11.7001 10.2275C11.3135 10.2275 11 9.91411 11 9.52747L11 5.92763C11 5.54099 11.3135 5.22756 11.7001 5.22756L15.2999 5.22756C15.6866 5.22756 16 5.54099 16 5.92763Z" fill="#F34040"/>
</g>
</g>
<g clip-path="url(#clip2_181_873)">
<g clip-path="url(#clip3_181_873)">
<path d="M21.5 1.42763L21.5 5.02747C21.5 5.41411 21.1866 5.72754 20.7999 5.72754L17.2001 5.72754C16.8135 5.72754 16.5 5.41411 16.5 5.02747L16.5 1.42763C16.5 1.04099 16.8135 0.727558 17.2001 0.727559L20.7999 0.727559C21.1866 0.727559 21.5 1.04099 21.5 1.42763Z" fill="#F34040"/>
</g>
</g>
<g clip-path="url(#clip4_181_873)">
<g clip-path="url(#clip5_181_873)">
<path d="M9.79991 15.7275L6.20007 15.7275C5.81343 15.7275 5.5 15.4141 5.5 15.0275L5.5 11.4276C5.5 11.041 5.81343 10.7276 6.20007 10.7276L9.79991 10.7276C10.1865 10.7276 10.5 11.041 10.5 11.4276L10.5 15.0275C10.5 15.4141 10.1865 15.7275 9.79991 15.7275Z" fill="#F34040"/>
</g>
</g>
<g clip-path="url(#clip6_181_873)">
<g clip-path="url(#clip7_181_873)">
<path d="M4.79991 20.7275L1.20007 20.7275C0.813432 20.7275 0.5 20.4141 0.5 20.0275L0.500001 16.4276C0.500001 16.041 0.813433 15.7276 1.20007 15.7276L4.79991 15.7276C5.18655 15.7276 5.49998 16.041 5.49998 16.4276L5.49998 20.0275C5.49998 20.4141 5.18655 20.7275 4.79991 20.7275Z" fill="#F34040"/>
</g>
</g>
<g clip-path="url(#clip8_181_873)">
<g clip-path="url(#clip9_181_873)">
<path d="M31.5 6.42763L31.5 10.0275C31.5 10.4141 31.1866 10.7275 30.7999 10.7275L27.2001 10.7275C26.8135 10.7275 26.5 10.4141 26.5 10.0275L26.5 6.42763C26.5 6.04099 26.8135 5.72756 27.2001 5.72756L30.7999 5.72756C31.1866 5.72756 31.5 6.04099 31.5 6.42763Z" fill="#F34040"/>
</g>
</g>
<g clip-path="url(#clip10_181_873)">
<g clip-path="url(#clip11_181_873)">
<path d="M36.5 1.42763L36.5 5.02747C36.5 5.41411 36.1866 5.72754 35.7999 5.72754L32.2001 5.72754C31.8135 5.72754 31.5 5.41411 31.5 5.02747L31.5 1.42763C31.5 1.04099 31.8135 0.727558 32.2001 0.727559L35.7999 0.727559C36.1866 0.727559 36.5 1.04099 36.5 1.42763Z" fill="#F34040"/>
</g>
</g>
<g clip-path="url(#clip12_181_873)">
<g clip-path="url(#clip13_181_873)">
<path d="M24.7999 15.7275L21.2001 15.7275C20.8134 15.7275 20.5 15.4141 20.5 15.0275L20.5 11.4276C20.5 11.041 20.8134 10.7276 21.2001 10.7276L24.7999 10.7276C25.1865 10.7276 25.5 11.041 25.5 11.4276L25.5 15.0275C25.5 15.4141 25.1865 15.7275 24.7999 15.7275Z" fill="#F34040"/>
</g>
</g>
<g clip-path="url(#clip14_181_873)">
<g clip-path="url(#clip15_181_873)">
<path d="M19.7999 20.7275L16.2001 20.7275C15.8134 20.7275 15.5 20.4141 15.5 20.0275L15.5 16.4276C15.5 16.041 15.8134 15.7276 16.2001 15.7276L19.7999 15.7276C20.1865 15.7276 20.5 16.041 20.5 16.4276L20.5 20.0275C20.5 20.4141 20.1865 20.7275 19.7999 20.7275Z" fill="#F34040"/>
</g>
</g>
<g clip-path="url(#clip16_181_873)">
<g clip-path="url(#clip17_181_873)">
<path d="M35.2999 20.2275L31.7001 20.2275C31.3134 20.2275 31 19.9141 31 19.5275L31 15.9276C31 15.541 31.3134 15.2276 31.7001 15.2276L35.2999 15.2276C35.6865 15.2276 36 15.541 36 15.9276L36 19.5275C36 19.9141 35.6865 20.2275 35.2999 20.2275Z" fill="#F34040"/>
</g>
</g>
<g clip-path="url(#clip18_181_873)">
<g clip-path="url(#clip19_181_873)">
<path d="M5.29991 5.22754L1.70007 5.22754C1.31343 5.22754 1 4.91411 1 4.52747L1 0.92763C1 0.540991 1.31343 0.227559 1.70007 0.227559L5.29991 0.22756C5.68655 0.22756 5.99998 0.540992 5.99998 0.927631L5.99998 4.52747C5.99998 4.91411 5.68655 5.22754 5.29991 5.22754Z" fill="#F34040"/>
</g>
</g>
<defs>
<clipPath id="clip0_181_873">
<rect width="5" height="6" fill="white" transform="translate(11 5)"/>
</clipPath>
<clipPath id="clip1_181_873">
<rect width="5" height="6" fill="white" transform="translate(11 5)"/>
</clipPath>
<clipPath id="clip2_181_873">
<rect width="5" height="6" fill="white" transform="translate(16.5 0.5)"/>
</clipPath>
<clipPath id="clip3_181_873">
<rect width="5" height="6" fill="white" transform="translate(16.5 0.5)"/>
</clipPath>
<clipPath id="clip4_181_873">
<rect width="5" height="6" fill="white" transform="translate(5.5 10.5)"/>
</clipPath>
<clipPath id="clip5_181_873">
<rect width="5" height="6" fill="white" transform="translate(5.5 10.5)"/>
</clipPath>
<clipPath id="clip6_181_873">
<rect width="5" height="6" fill="white" transform="translate(0.5 15.5)"/>
</clipPath>
<clipPath id="clip7_181_873">
<rect width="5" height="6" fill="white" transform="translate(0.5 15.5)"/>
</clipPath>
<clipPath id="clip8_181_873">
<rect width="5" height="6" fill="white" transform="translate(26.5 5.5)"/>
</clipPath>
<clipPath id="clip9_181_873">
<rect width="5" height="6" fill="white" transform="translate(26.5 5.5)"/>
</clipPath>
<clipPath id="clip10_181_873">
<rect width="5" height="6" fill="white" transform="translate(31.5 0.5)"/>
</clipPath>
<clipPath id="clip11_181_873">
<rect width="5" height="6" fill="white" transform="translate(31.5 0.5)"/>
</clipPath>
<clipPath id="clip12_181_873">
<rect width="5" height="6" fill="white" transform="translate(20.5 10.5)"/>
</clipPath>
<clipPath id="clip13_181_873">
<rect width="5" height="6" fill="white" transform="translate(20.5 10.5)"/>
</clipPath>
<clipPath id="clip14_181_873">
<rect width="5" height="6" fill="white" transform="translate(15.5 15.5)"/>
</clipPath>
<clipPath id="clip15_181_873">
<rect width="5" height="6" fill="white" transform="translate(15.5 15.5)"/>
</clipPath>
<clipPath id="clip16_181_873">
<rect width="5" height="6" fill="white" transform="translate(31 15)"/>
</clipPath>
<clipPath id="clip17_181_873">
<rect width="5" height="6" fill="white" transform="translate(31 15)"/>
</clipPath>
<clipPath id="clip18_181_873">
<rect width="5" height="6" fill="white" transform="translate(1)"/>
</clipPath>
<clipPath id="clip19_181_873">
<rect width="5" height="6" fill="white" transform="translate(1)"/>
</clipPath>
</defs>
</svg>
