<svg width="15" height="15" viewBox="0 0 15 15" fill="none" xmlns="http://www.w3.org/2000/svg">
<path d="M9.30975 0H5.3671C2.40293 0 0 2.36845 0 5.29007V9.17614C0 12.0978 2.40293 14.4662 5.3671 14.4662H9.30975C12.2739 14.4662 14.6768 12.0978 14.6768 9.17614V5.29007C14.6768 2.36845 12.2739 0 9.30975 0Z" fill="#562B35"/>
<path d="M5.3671 0.5H9.30975C12.0046 0.5 14.1768 2.65138 14.1768 5.29007V9.17614C14.1768 11.8148 12.0046 13.9662 9.30975 13.9662H5.3671C2.67224 13.9662 0.5 11.8148 0.5 9.17614V5.29007C0.5 2.65138 2.67224 0.5 5.3671 0.5Z" stroke="#F64E4E" stroke-opacity="0.3"/>
<path d="M9.29476 3.37598H5.38146C4.30083 3.37598 3.4248 4.23943 3.4248 5.30455V9.16169C3.4248 10.2268 4.30083 11.0903 5.38146 11.0903H9.29476C10.3754 11.0903 11.2514 10.2268 11.2514 9.16169V5.30455C11.2514 4.23943 10.3754 3.37598 9.29476 3.37598Z" fill="#F74E4E"/>
</svg>
